<?xml version="1.0" encoding="utf-8"?>
<!-- Generator: Adobe Illustrator 24.1.1, SVG Export Plug-In . SVG Version: 6.00 Build 0)  -->
<svg version="1.1" id="Layer_1" xmlns="http://www.w3.org/2000/svg" xmlns:xlink="http://www.w3.org/1999/xlink" x="0px" y="0px"
	 viewBox="0 0 640 480" style="enable-background:new 0 0 640 480;" xml:space="preserve">
<style type="text/css">
	.st0{fill:none;stroke:#6798E9;stroke-width:24.1831;stroke-linecap:round;stroke-linejoin:round;stroke-miterlimit:1;}
	.st1{fill:#6798E9;stroke:#6798E9;stroke-width:15.7186;stroke-miterlimit:3.2;}
	.st2{fill:#F5FF12;stroke:#F5FF12;stroke-width:1.9648;stroke-linecap:round;stroke-miterlimit:1;}
</style>
<g id="g13552" transform="translate(-.95256 20.524)">
	<path id="path10289" class="st0" d="M367.1,295.7c60.6-5.5,104.8-22.2,104.8-42c0-1.7-1.1-3.1-1.7-4.8c3.6,0.9,7.2,1.8,11.1,1.8
		c21.9,0,39.6-14.9,39.6-33.2c0-18.3-17.7-33-39.6-33c-2.7,0-5,0.8-7.6,1.3c2.2-7.3,3.7-14.8,3.7-22.8c0-48.4-43.9-87.8-98-87.8l0,0
		c-38.4,0-71.2,20-87.4,48.7c-6.4-3.6-13.6-5.8-21.2-5.8c-22.9,0-42,18.4-47.9,43.5c-10.1-4-21.7-6.4-34.2-6.4
		c-37.5,0-67.9,20.6-67.9,45.8c0,22.8,24.9,41.6,57.3,45.1c-1.5,2.5-2.6,5-2.6,7.5c0,16.7,31.5,31.2,77.8,38.6"/>
	<path id="path10291" class="st1" d="M209.3,361.3c-32.4,28.6,5.6,52.9,20.1,13.7l11.1-36.4L209.3,361.3L209.3,361.3z"/>
	<path id="path10293" class="st1" d="M323.4,366c-32.4,28.6,5.6,52.9,20.1,13.7l11.1-36.4L323.4,366L323.4,366z"/>
	<path id="path10295" class="st1" d="M296.8,305.7c-32.4,28.6,5.7,52.9,20.1,13.7l11.2-36.4L296.8,305.7z"/>
	<path id="path10297" class="st0" d="M367.1,295.7c60.6-5.5,104.8-22.2,104.8-42c0-1.7-1.1-3.1-1.7-4.8c3.6,0.9,7.2,1.8,11.1,1.8
		c21.9,0,39.6-14.9,39.6-33.2c0-18.3-17.7-33-39.6-33c-2.7,0-5,0.8-7.6,1.3c2.2-7.3,3.7-14.8,3.7-22.8c0-48.4-43.9-87.8-98-87.8l0,0
		c-38.4,0-71.2,20-87.4,48.7c-6.4-3.6-13.6-5.8-21.2-5.8c-22.9,0-42,18.4-47.9,43.5c-10.1-4-21.7-6.4-34.2-6.4
		c-37.5,0-67.9,20.6-67.9,45.8c0,22.8,24.9,41.6,57.3,45.1c-1.5,2.5-2.6,5-2.6,7.5c0,16.7,31.5,31.2,77.8,38.6"/>
	<path id="path10299" class="st1" d="M209.3,361.3c-32.4,28.6,5.6,52.9,20.1,13.7l11.1-36.4L209.3,361.3L209.3,361.3z"/>
	<path id="path10301" class="st1" d="M323.4,366c-32.4,28.6,5.6,52.9,20.1,13.7l11.1-36.4L323.4,366L323.4,366z"/>
	<path id="path10303" class="st1" d="M296.8,305.7c-32.4,28.6,5.7,52.9,20.1,13.7l11.2-36.4L296.8,305.7z"/>
	<path id="path10305" class="st2" d="M371.9,96.4l-78.8,49.9l77.8,17.2L299,217.1l-29-9l20.6,51.7l81.8-22.6l-34.5-9.4l93.8-77
		l-85.7-14l82.8-52L381.5,77l51.4-33L414,43.4l-79.8,45.4L371.9,96.4L371.9,96.4z"/>
</g>
</svg>
