<?xml version="1.0" encoding="utf-8"?>
<!-- Generator: Adobe Illustrator 24.1.1, SVG Export Plug-In . SVG Version: 6.00 Build 0)  -->
<svg version="1.1" id="Layer_1" xmlns="http://www.w3.org/2000/svg" xmlns:xlink="http://www.w3.org/1999/xlink" x="0px" y="0px"
	 viewBox="0 0 640 480" style="enable-background:new 0 0 640 480;" xml:space="preserve">
<style type="text/css">
	.st0{fill:none;stroke:#6798E9;stroke-width:24.1807;stroke-linecap:round;stroke-linejoin:round;stroke-miterlimit:1;}
	.st1{fill:#6798E9;stroke:#6798E9;stroke-width:15.7171;stroke-miterlimit:3.2;}
</style>
<g id="g13542" transform="translate(-2.4761 19.309)">
	<path id="path8749" class="st0" d="M373.3,282.4c60.6-5.5,104.8-22.2,104.8-42c0-1.6-1.1-3.1-1.7-4.7c3.6,0.9,7.2,1.8,11.1,1.8
		c21.9,0,39.6-14.9,39.6-33.2c0-18.3-17.7-33-39.6-33c-2.7,0-5.1,0.9-7.6,1.3c2.2-7.3,3.7-14.8,3.7-22.8c0-48.4-43.9-87.8-98-87.8
		l0,0c-38.4,0-71.2,20-87.3,48.7c-6.4-3.6-13.6-5.8-21.2-5.8c-22.9,0-42,18.4-47.9,43.5c-10.1-4-21.7-6.4-34.2-6.4
		c-37.5,0-67.9,20.6-67.9,45.9c0,22.8,25,41.6,57.4,45.1c-1.5,2.5-2.6,4.9-2.6,7.5c0,16.7,31.5,31.2,77.8,38.6"/>
	<path id="path8734" class="st1" d="M215.4,347.9c-32.4,28.6,5.6,52.9,20.1,13.7l11.1-36.4L215.4,347.9L215.4,347.9z"/>
	<path id="path8736" class="st1" d="M329.5,352.6c-32.4,28.6,5.7,52.9,20.2,13.7l11.1-36.4L329.5,352.6L329.5,352.6z"/>
	<path id="path8738" class="st1" d="M303,292.3c-32.4,28.6,5.7,52.9,20.1,13.7l11.1-36.4L303,292.3L303,292.3z"/>
	<path id="path10281" class="st0" d="M373.3,282.4c60.6-5.5,104.8-22.2,104.8-42c0-1.6-1.1-3.1-1.7-4.7c3.6,0.9,7.2,1.8,11.1,1.8
		c21.9,0,39.6-14.9,39.6-33.2c0-18.3-17.7-33-39.6-33c-2.7,0-5.1,0.9-7.6,1.3c2.2-7.3,3.7-14.8,3.7-22.8c0-48.4-43.9-87.8-98-87.8
		l0,0c-38.4,0-71.2,20-87.3,48.7c-6.4-3.6-13.6-5.8-21.2-5.8c-22.9,0-42,18.4-47.9,43.5c-10.1-4-21.7-6.4-34.2-6.4
		c-37.5,0-67.9,20.6-67.9,45.9c0,22.8,25,41.6,57.4,45.1c-1.5,2.5-2.6,4.9-2.6,7.5c0,16.7,31.5,31.2,77.8,38.6"/>
	<path id="path10283" class="st1" d="M215.4,347.9c-32.4,28.6,5.6,52.9,20.1,13.7l11.1-36.4L215.4,347.9L215.4,347.9z"/>
	<path id="path10285" class="st1" d="M329.5,352.6c-32.4,28.6,5.7,52.9,20.2,13.7l11.1-36.4L329.5,352.6L329.5,352.6z"/>
	<path id="path10287" class="st1" d="M303,292.3c-32.4,28.6,5.7,52.9,20.1,13.7l11.1-36.4L303,292.3L303,292.3z"/>
</g>
</svg>
