<?xml version="1.0" encoding="utf-8"?>
<!-- Generator: Adobe Illustrator 24.1.1, SVG Export Plug-In . SVG Version: 6.00 Build 0)  -->
<svg version="1.1" id="Layer_1" xmlns="http://www.w3.org/2000/svg" xmlns:xlink="http://www.w3.org/1999/xlink" x="0px" y="0px"
	 viewBox="0 0 640 480" style="enable-background:new 0 0 640 480;" xml:space="preserve">
<style type="text/css">
	.st0{fill:#F5FF12;}
	.st1{fill:#FFFFFF;stroke:#F5FF12;stroke-width:30.2691;stroke-miterlimit:1;}
</style>
<g id="g3517" transform="matrix(.86284 0 0 .86284 4.7584 15.255)">
	<path id="path2035" class="st0" d="M509.9,428.4c-7.2,8-87.4-72.3-97.9-68.4c-10.5,4-26.5,132.4-37.7,133.8
		c-11.2,1.5-30.4-130.2-41.3-133.3c-10.9-3.1-73.9,76.1-83.3,70.2c-9.4-6,22.4-102.7,17.2-112.9c-5.3-10.1-125.4-14.9-127.8-26.1
		c-2.5-11.3,108.9-40.9,109.8-52.1c0.9-11.2-74.8-74.4-70.4-84.2c4.3-9.8,105.7,32.2,112.5,23.6c6.8-8.6-13.3-116.8-3-120
		c10.4-3.2,72.8,72.7,83.9,72.4c11.1-0.4,44.5-95.6,55.8-93.3c11.3,2.2,5.7,101,14.4,107.6c8.8,6.6,95.5-24.7,102-15.8
		c6.4,9-49.7,96.2-46.4,106.5s106.3,20.2,104.9,30.9c-1.4,10.7-128.7,15.3-133.9,25.6C463.3,303.1,517.1,420.3,509.9,428.4
		L509.9,428.4z"/>
	<path id="path1305" class="st1" d="M522.4,243.9c0.6,71.3-67.8,129.5-152.8,130S215.3,317,214.7,245.7c0-0.6,0-1.2,0-1.8
		c-0.6-71.3,67.8-129.5,152.8-130s154.3,56.9,154.9,128.2C522.4,242.7,522.4,243.3,522.4,243.9z"/>
</g>
</svg>
