<?xml version="1.0" encoding="utf-8"?>
<!-- Generator: Adobe Illustrator 24.1.1, SVG Export Plug-In . SVG Version: 6.00 Build 0)  -->
<svg version="1.1" id="Layer_1" xmlns="http://www.w3.org/2000/svg" xmlns:xlink="http://www.w3.org/1999/xlink" x="0px" y="0px"
	 viewBox="0 0 640 480" style="enable-background:new 0 0 640 480;" xml:space="preserve">
<style type="text/css">
	.st0{fill:#F5FF12;}
	.st1{fill:#FFFFFF;stroke:#F5FF12;stroke-width:36.7364;stroke-miterlimit:1;}
	.st2{fill:#FFFFFF;stroke:#6798E9;stroke-width:22.0047;stroke-linecap:round;stroke-linejoin:round;stroke-miterlimit:1;}
</style>
<g id="g13515" transform="translate(-4.0343 19.892)">
	<path id="path5006" class="st0" d="M345,318c-4.2,4.7-51.3-42.5-57.5-40.1c-6.2,2.3-15.6,77.7-22.1,78.6
		c-6.6,0.9-17.8-76.4-24.2-78.3c-6.4-1.8-43.4,44.7-48.9,41.2c-5.5-3.5,13.2-60.3,10.1-66.3c-3.1-5.9-73.6-8.7-75.1-15.4
		c-1.5-6.6,63.9-24,64.4-30.6c0.5-6.6-43.9-43.7-41.3-49.4s62,18.9,66.1,13.8c4-5-7.8-68.6-1.7-70.5c6.1-1.9,42.7,42.7,49.2,42.5
		c6.5-0.2,26.1-56.1,32.8-54.8c6.7,1.3,3.3,59.3,8.5,63.2c5.2,3.9,56.1-14.5,59.9-9.3c3.8,5.3-29.2,56.5-27.2,62.5
		s62.4,11.9,61.6,18.1c-0.8,6.3-75.5,9-78.6,15C317.7,244.5,349.3,313.3,345,318z"/>
	<path id="path5008" class="st1" d="M352.4,209.7c0.4,41.9-39.8,76-89.7,76.3c-49.9,0.3-90.6-33.4-91-75.3c0-0.4,0-0.7,0-1.1
		c-0.4-41.9,39.8-76,89.7-76.3c49.9-0.3,90.6,33.4,91,75.3C352.4,209,352.4,209.4,352.4,209.7z"/>
	<path id="path9498" class="st2" d="M398.6,155.6c-34.9,0-64.9,18.1-79.6,44.2c-5.9-3.3-12.3-5.2-19.2-5.2
		c-20.9,0-38.2,16.8-43.6,39.5c-9.2-3.6-19.8-5.8-31.2-5.8c-34.1,0-61.8,18.7-61.8,41.7c0,20.8,22.7,37.8,52.2,41
		c-1.3,2.2-2.3,4.5-2.3,6.8c0,22.1,60.4,40,134.8,40s134.8-17.9,134.8-40c0-1.5-0.9-2.8-1.5-4.2c3.3,0.8,6.5,1.6,10.1,1.6
		c19.9,0,36.1-13.5,36.1-30.1c0-16.7-16.2-30.2-36.1-30.2c-2.4,0-4.5,0.9-6.8,1.2c2-6.7,3.4-13.4,3.4-20.7
		C487.7,191.4,447.8,155.6,398.6,155.6z"/>
</g>
</svg>
