<?xml version="1.0" encoding="utf-8"?>
<!-- Generator: Adobe Illustrator 24.1.1, SVG Export Plug-In . SVG Version: 6.00 Build 0)  -->
<svg version="1.1" id="Layer_1" xmlns="http://www.w3.org/2000/svg" xmlns:xlink="http://www.w3.org/1999/xlink" x="0px" y="0px"
	 viewBox="0 0 640 480" style="enable-background:new 0 0 640 480;" xml:space="preserve">
<style type="text/css">
	.st0{fill:none;}
	.st1{fill:none;stroke:#6798E9;stroke-width:9.2911;stroke-linecap:round;stroke-linejoin:round;stroke-miterlimit:1;}
	.st2{fill:#6798E9;stroke:#6798E9;stroke-width:6.0391;stroke-miterlimit:3.2;}
	.st3{fill:#F5FF12;stroke:#F5FF12;stroke-width:0.7549;stroke-linecap:round;stroke-miterlimit:1;}
</style>
<line class="st0" x1="-12047.3" y1="240" x2="12687.3" y2="240"/>
<line class="st0" x1="320" y1="-12127.3" x2="320" y2="12607.3"/>
<g id="g13552" transform="translate(-.95256 20.524)">
	<path id="path10289" class="st1" d="M344.6,251.3c23.3-2.1,40.3-8.5,40.3-16.1c0-0.6-0.4-1.2-0.6-1.8c1.4,0.3,2.8,0.7,4.3,0.7
		c8.4,0,15.2-5.7,15.2-12.7c0-7-6.8-12.7-15.2-12.7c-1,0-1.9,0.3-2.9,0.5c0.8-2.8,1.4-5.7,1.4-8.7c0-18.6-16.9-33.7-37.7-33.7l0,0
		c-14.8,0-27.4,7.7-33.6,18.7c-2.5-1.4-5.2-2.2-8.1-2.2c-8.8,0-16.1,7.1-18.4,16.7c-3.9-1.5-8.3-2.5-13.1-2.5
		c-14.4,0-26.1,7.9-26.1,17.6c0,8.8,9.6,16,22,17.3c-0.6,1-1,1.9-1,2.9c0,6.4,12.1,12,29.9,14.8"/>
	<path id="path10291" class="st2" d="M284,276.5c-12.5,11,2.2,20.3,7.7,5.3l4.3-14L284,276.5L284,276.5z"/>
	<path id="path10293" class="st2" d="M327.8,278.3c-12.5,11,2.2,20.3,7.7,5.3l4.3-14L327.8,278.3L327.8,278.3z"/>
	<path id="path10295" class="st2" d="M317.6,255.2c-12.5,11,2.2,20.3,7.7,5.3l4.3-14L317.6,255.2z"/>
	<path id="path10297" class="st1" d="M344.6,251.3c23.3-2.1,40.3-8.5,40.3-16.1c0-0.6-0.4-1.2-0.6-1.8c1.4,0.3,2.8,0.7,4.3,0.7
		c8.4,0,15.2-5.7,15.2-12.7c0-7-6.8-12.7-15.2-12.7c-1,0-1.9,0.3-2.9,0.5c0.8-2.8,1.4-5.7,1.4-8.7c0-18.6-16.9-33.7-37.7-33.7l0,0
		c-14.8,0-27.4,7.7-33.6,18.7c-2.5-1.4-5.2-2.2-8.1-2.2c-8.8,0-16.1,7.1-18.4,16.7c-3.9-1.5-8.3-2.5-13.1-2.5
		c-14.4,0-26.1,7.9-26.1,17.6c0,8.8,9.6,16,22,17.3c-0.6,1-1,1.9-1,2.9c0,6.4,12.1,12,29.9,14.8"/>
	<path id="path10299" class="st2" d="M284,276.5c-12.5,11,2.2,20.3,7.7,5.3l4.3-14L284,276.5L284,276.5z"/>
	<path id="path10301" class="st2" d="M327.8,278.3c-12.5,11,2.2,20.3,7.7,5.3l4.3-14L327.8,278.3L327.8,278.3z"/>
	<path id="path10303" class="st2" d="M317.6,255.2c-12.5,11,2.2,20.3,7.7,5.3l4.3-14L317.6,255.2z"/>
	<path id="path10305" class="st3" d="M346.4,174.8L316.2,194l29.9,6.6l-27.6,20.6l-11.2-3.5l7.9,19.9l31.4-8.7l-13.3-3.6l36-29.6
		l-32.9-5.4l31.8-20l-18.1-3l19.8-12.7l-7.3-0.2L332,171.8L346.4,174.8L346.4,174.8z"/>
</g>
</svg>
