<?xml version="1.0" encoding="utf-8"?>
<!-- Generator: Adobe Illustrator 24.1.1, SVG Export Plug-In . SVG Version: 6.00 Build 0)  -->
<svg version="1.1" id="Layer_1" xmlns="http://www.w3.org/2000/svg" xmlns:xlink="http://www.w3.org/1999/xlink" x="0px" y="0px"
	 viewBox="0 0 640 480" style="enable-background:new 0 0 640 480;" xml:space="preserve">
<style type="text/css">
	.st0{fill:none;}
	.st1{fill:none;stroke:#6798E9;stroke-width:9.2911;stroke-linecap:round;stroke-linejoin:round;stroke-miterlimit:1;}
	.st2{fill:#6798E9;stroke:#6798E9;stroke-width:6.0391;stroke-miterlimit:3.2;}
</style>
<line class="st0" x1="-12047.3" y1="240" x2="12687.3" y2="240"/>
<line class="st0" x1="320" y1="-12127.3" x2="320" y2="12607.3"/>
<g id="g13542" transform="translate(-2.4761 19.309)">
	<path id="path8749" class="st1" d="M340.3,242.4c23.3-2.1,40.3-8.5,40.3-16.1c0-0.6-0.4-1.2-0.6-1.8c1.4,0.3,2.8,0.7,4.3,0.7
		c8.4,0,15.2-5.7,15.2-12.7c0-7-6.8-12.7-15.2-12.7c-1,0-1.9,0.3-2.9,0.5c0.8-2.8,1.4-5.7,1.4-8.7c0-18.6-16.9-33.7-37.7-33.7l0,0
		c-14.8,0-27.4,7.7-33.6,18.7c-2.5-1.4-5.2-2.2-8.2-2.2c-8.8,0-16.1,7.1-18.4,16.7c-3.9-1.5-8.3-2.5-13.1-2.5
		c-14.4,0-26.1,7.9-26.1,17.6c0,8.8,9.6,16,22,17.3c-0.6,1-1,1.9-1,2.9c0,6.4,12.1,12,29.9,14.8"/>
	<path id="path8734" class="st2" d="M279.7,267.6c-12.5,11,2.2,20.3,7.7,5.3l4.3-14L279.7,267.6L279.7,267.6z"/>
	<path id="path8736" class="st2" d="M323.5,269.4c-12.5,11,2.2,20.3,7.7,5.3l4.3-14L323.5,269.4L323.5,269.4z"/>
	<path id="path8738" class="st2" d="M313.3,246.2c-12.5,11,2.2,20.3,7.7,5.3l4.3-14L313.3,246.2L313.3,246.2z"/>
	<path id="path10281" class="st1" d="M340.3,242.4c23.3-2.1,40.3-8.5,40.3-16.1c0-0.6-0.4-1.2-0.6-1.8c1.4,0.3,2.8,0.7,4.3,0.7
		c8.4,0,15.2-5.7,15.2-12.7c0-7-6.8-12.7-15.2-12.7c-1,0-1.9,0.3-2.9,0.5c0.8-2.8,1.4-5.7,1.4-8.7c0-18.6-16.9-33.7-37.7-33.7l0,0
		c-14.8,0-27.4,7.7-33.6,18.7c-2.5-1.4-5.2-2.2-8.2-2.2c-8.8,0-16.1,7.1-18.4,16.7c-3.9-1.5-8.3-2.5-13.1-2.5
		c-14.4,0-26.1,7.9-26.1,17.6c0,8.8,9.6,16,22,17.3c-0.6,1-1,1.9-1,2.9c0,6.4,12.1,12,29.9,14.8"/>
	<path id="path10283" class="st2" d="M279.7,267.6c-12.5,11,2.2,20.3,7.7,5.3l4.3-14L279.7,267.6L279.7,267.6z"/>
	<path id="path10285" class="st2" d="M323.5,269.4c-12.5,11,2.2,20.3,7.7,5.3l4.3-14L323.5,269.4L323.5,269.4z"/>
	<path id="path10287" class="st2" d="M313.3,246.2c-12.5,11,2.2,20.3,7.7,5.3l4.3-14L313.3,246.2L313.3,246.2z"/>
</g>
</svg>
