<?xml version="1.0" encoding="utf-8"?>
<!-- Generator: Adobe Illustrator 24.1.1, SVG Export Plug-In . SVG Version: 6.00 Build 0)  -->
<svg version="1.1" id="Layer_1" xmlns="http://www.w3.org/2000/svg" xmlns:xlink="http://www.w3.org/1999/xlink" x="0px" y="0px"
	 viewBox="0 0 640 480" style="enable-background:new 0 0 640 480;" xml:space="preserve">
<style type="text/css">
	.st0{fill:#F5FF12;}
	.st1{fill:#FFFFFF;stroke:#F5FF12;stroke-width:10.0209;stroke-miterlimit:10;}
</style>
<path id="path2035" class="st0" d="M326,335.5c-3.8,0.5-10.2-51.8-13.7-53.1c-3.6-1.3-24.6,30.4-27.7,28c-3.1-2.3,7.4-40.9,5.7-44.9
	c-1.7-4-41.7-5.9-42.5-10.4s36.2-16.3,36.5-20.7c0.3-4.4-24.9-29.6-23.4-33.5s35.2,12.8,37.4,9.4c2.2-3.4-4.4-46.5-1-47.8
	c3.5-1.3,24.2,28.9,27.9,28.8c3.6-0.1,14.9-38,18.5-37.1c3.8,0.9,1.8,40.3,4.8,42.9c3,2.6,31.8-9.9,33.9-6.3
	c2.1,3.5-16.5,38.3-15.4,42.5c1.2,4.2,35.3,8.1,34.9,12.2c-0.5,4.3-42.9,6.1-44.6,10.2c-1.7,4,16.2,50.8,13.8,53.9l0,0
	c-2.3,3.3-29-28.8-32.6-27.2S329.6,335,326,335.5"/>
<path id="path1305" class="st1" d="M375.2,236c0.3,28.4-22.5,51.6-50.8,51.8c-28.3,0.3-51.3-22.7-51.6-51.1c0-0.3,0-0.5,0-0.8
	c-0.3-28.4,22.5-51.6,50.8-51.8c28.3-0.3,51.3,22.7,51.6,51.1C375.2,235.4,375.2,235.7,375.2,236z"/>
</svg>
