<?xml version="1.0" encoding="utf-8"?>
<!-- Generator: Adobe Illustrator 24.1.1, SVG Export Plug-In . SVG Version: 6.00 Build 0)  -->
<svg version="1.1" id="Layer_1" xmlns="http://www.w3.org/2000/svg" xmlns:xlink="http://www.w3.org/1999/xlink" x="0px" y="0px"
	 viewBox="0 0 640 480" style="enable-background:new 0 0 640 480;" xml:space="preserve">
<style type="text/css">
	.st0{fill:none;}
	.st1{fill:#F5FF12;}
	.st2{fill:#FFFFFF;stroke:#F5FF12;stroke-width:20.0663;stroke-miterlimit:1;}
	.st3{fill:#FFFFFF;stroke:#6798E9;stroke-width:9.2911;stroke-linecap:round;stroke-linejoin:round;stroke-miterlimit:1;}
	.st4{fill:#386195;stroke:#386195;stroke-width:9.2911;stroke-linecap:round;stroke-linejoin:round;stroke-miterlimit:1;}
</style>
<line class="st0" x1="364.8" y1="-12126.8" x2="364.8" y2="12607.8"/>
<g id="g13520" transform="translate(-7.9254 19.206)">
	<path id="path5022" class="st1" d="M321.5,246.3c-1.3,1.4-15.7-13-17.6-12.3s-4.8,23.8-6.8,24c-2,0.3-5.5-23.4-7.4-23.9
		c-1.9-0.6-13.3,13.7-15,12.6c-1.7-1.1,4-18.4,3.1-20.3c-1-1.8-22.5-2.7-22.9-4.7c-0.4-2,19.5-7.3,19.7-9.3
		c0.2-2-13.4-13.3-12.6-15.1c0.8-1.8,19,5.8,20.2,4.2c1.2-1.5-2.4-21-0.5-21.5c1.9-0.6,13.1,13.1,15.1,13c2-0.1,8-17.2,10-16.8
		c2,0.4,1,18.1,2.6,19.3c1.6,1.2,17.1-4.4,18.3-2.8c1.1,1.6-8.9,17.3-8.3,19.1c0.6,1.9,19.1,3.6,18.8,5.5c-0.2,1.9-23.1,2.7-24,4.6
		C313.1,223.8,322.8,244.9,321.5,246.3z"/>
	<path id="path5024" class="st2" d="M323.7,213.2c0.1,12.8-12.2,23.3-27.4,23.3c-15.2,0.1-27.7-10.2-27.8-23c0-0.1,0-0.2,0-0.3
		c-0.1-12.8,12.2-23.3,27.4-23.3c15.2-0.1,27.7,10.2,27.8,23C323.7,213,323.7,213.1,323.7,213.2z"/>
	<path id="path5030" class="st3" d="M347.9,181.8c-14.8,0-27.4,7.7-33.6,18.7c-2.5-1.4-5.2-2.2-8.2-2.2c-8.8,0-16.1,7.1-18.4,16.7
		c-3.9-1.5-8.3-2.5-13.1-2.5c-14.4,0-26.1,7.9-26.1,17.6c0,8.8,9.6,16,22,17.3c-0.6,1-1,1.9-1,2.9c0,9.3,25.5,16.9,56.9,16.9
		c31.4,0,56.9-7.6,56.9-16.9c0-0.6-0.4-1.2-0.6-1.8c1.4,0.3,2.8,0.7,4.3,0.7c8.4,0,15.2-5.7,15.2-12.7s-6.8-12.7-15.2-12.7
		c-1,0-1.9,0.3-2.9,0.5c0.8-2.8,1.4-5.7,1.4-8.7C385.5,197,368.7,181.8,347.9,181.8z"/>
	<path id="path5044" class="st4" d="M382.9,219.1c-8.8,0-16.2,4.6-19.9,11.1c-1.5-0.8-3.1-1.3-4.8-1.3c-5.2,0-9.6,4.2-10.9,9.9
		c-2.3-0.9-5-1.5-7.8-1.5c-8.5,0-15.5,4.7-15.5,10.4c0,5.2,5.7,9.5,13.1,10.3c-0.3,0.6-0.6,1.1-0.6,1.7c0,5.5,15.1,10,33.8,10
		c18.6,0,33.8-4.5,33.8-10c0-0.4-0.2-0.7-0.4-1.1c0.8,0.2,1.6,0.4,2.5,0.4c5,0,9-3.4,9-7.6c0-4.2-4-7.5-9-7.5
		c-0.6,0-1.1,0.2-1.7,0.3c0.5-1.7,0.8-3.4,0.8-5.2C405.2,228.1,395.2,219.1,382.9,219.1L382.9,219.1z"/>
</g>
</svg>
